<?xml version="1.0" encoding="UTF-8" standalone="no"?>
<!-- Created with Inkscape (http://www.inkscape.org/) -->

<svg
   xmlns:dc="http://purl.org/dc/elements/1.1/"
   xmlns:cc="http://creativecommons.org/ns#"
   xmlns:rdf="http://www.w3.org/1999/02/22-rdf-syntax-ns#"
   xmlns:svg="http://www.w3.org/2000/svg"
   xmlns="http://www.w3.org/2000/svg"
   xmlns:sodipodi="http://sodipodi.sourceforge.net/DTD/sodipodi-0.dtd"
   xmlns:inkscape="http://www.inkscape.org/namespaces/inkscape"
   width="1000mm"
   height="1000mm"
   viewBox="0 0 3543.3071 3543.3071"
   id="svg2"
   version="1.1"
   inkscape:version="0.91 r13725"
   sodipodi:docname="ico-file.svg">
  <defs
     id="defs4" />
  <sodipodi:namedview
     id="base"
     pagecolor="#ffffff"
     bordercolor="#666666"
     borderopacity="1.0"
     inkscape:pageopacity="0.0"
     inkscape:pageshadow="2"
     inkscape:zoom="0.24748737"
     inkscape:cx="872.24516"
     inkscape:cy="3983.2298"
     inkscape:document-units="px"
     inkscape:current-layer="layer1"
     showgrid="false"
     inkscape:window-width="1920"
     inkscape:window-height="1017"
     inkscape:window-x="-4"
     inkscape:window-y="-4"
     inkscape:window-maximized="1" />
  <metadata
     id="metadata7">
    <rdf:RDF>
      <cc:Work
         rdf:about="">
        <dc:format>image/svg+xml</dc:format>
        <dc:type
           rdf:resource="http://purl.org/dc/dcmitype/StillImage" />
        <dc:title></dc:title>
      </cc:Work>
    </rdf:RDF>
  </metadata>
  <g
     inkscape:label="Layer 1"
     inkscape:groupmode="layer"
     id="layer1"
     transform="translate(0,2490.9449)">
    <g
       id="g3571"
       style="fill:#000000"
       transform="matrix(7.4993285,0,0,7.0697086,8661.826,13918.29)">
      <path
         style="fill:#000000"
         d="m -864.54552,-2466.3691 c 0.005,-12.8409 0.34585,-17.8203 0.75817,-11.0654 0.41232,6.7549 0.40849,17.261 -0.009,23.3469 -0.41699,6.086 -0.75434,0.5593 -0.74967,-12.2815 z m 60.03184,-2.1225 c -0.006,-10.5061 0.34397,-15.0717 0.77839,-10.1457 0.43443,4.926 0.4396,13.522 0.0114,19.1021 -0.42803,5.5801 -0.78347,1.5497 -0.78979,-8.9564 z"
         id="path3577"
         inkscape:connector-curvature="0" />
      <path
         style="fill:#000000"
         d="m -823.177,-2436.7464 c -0.67463,-1.8014 -0.76376,-3.7494 -0.19807,-4.3291 0.5657,-0.5796 1.52573,0.8942 2.13341,3.2752 1.29081,5.0577 -0.14339,5.8387 -1.93534,1.0539 z m 22.82746,-29.6227 c 0.005,-11.6735 0.35325,-16.1782 0.77301,-10.0105 0.41975,6.1677 0.41534,15.7187 -0.01,21.2245 -0.42522,5.5057 -0.76866,0.4594 -0.76327,-11.214 z m -60.09271,-2.1225 c -0.006,-10.5061 0.34397,-15.0717 0.77839,-10.1457 0.43443,4.926 0.4396,13.522 0.0115,19.1021 -0.42811,5.5801 -0.78356,1.5497 -0.78987,-8.9564 z"
         id="path3575"
         inkscape:connector-curvature="0" />
      <path
         style="fill:#000000"
         d="m -842.94894,-2433.8957 c 5.45068,-5.5849 2.7114,-8.0653 -8.90714,-8.0653 l -11.39286,0 0,-24.4081 0,-24.4082 31.07143,0 31.07142,0 0,24.4082 0,24.4081 -11.39285,0 c -11.61855,0 -14.35782,2.4804 -8.90715,8.0653 1.93334,1.981 -0.46031,2.547 -10.77142,2.547 -10.31111,0 -12.70477,-0.566 -10.77143,-2.547 z m 39.77143,-34.5959 0,-18.0408 -29,0 -29,0 0,18.0408 0,18.0408 29,0 29,0 0,-18.0408 z m -34.8,4.8816 c -3.92909,-4.0258 -3.06159,-8.5386 1.36469,-7.0991 2.22281,0.7228 4.95685,-0.1139 6.46792,-1.9795 3.22403,-3.9804 6.2531,-4.1828 6.2531,-0.4179 0,2.6011 -8.30615,12.0435 -10.59422,12.0435 -0.55318,0 -2.12435,-1.1461 -3.49149,-2.547 z"
         id="path3573"
         inkscape:connector-curvature="0" />
    </g>
    <path
       style="fill:#000000"
       d="m 3357.8135,-3305.4259 c -3.914,-10.4913 -5.3572,-112.9149 -3.207,-227.6081 l 3.9087,-208.5335 217.3987,0 217.3986,0 0,223.624 0,223.624 -214.1915,3.9845 c -167.4216,3.1143 -215.7452,-0.1789 -221.3075,-15.0909 z m 400.4347,-212.5176 0,-187.5553 -182.3343,0 -182.3342,0 0,187.5553 0,187.5559 182.3342,0 182.3343,0 0,-187.5559 z m -336.6174,100.9916 c 0,-65.0408 23.8004,-79.0555 30.6262,-18.0345 3.486,31.1628 12.7137,40.6549 43.009,44.2406 59.3227,7.0218 45.6981,31.5033 -17.5323,31.5033 -56.1029,0 -56.1029,0 -56.1029,-57.7094 z m 196.3603,44.2404 c 0,-7.408 17.3565,-15.5232 38.5706,-18.0343 30.2951,-3.5857 39.523,-13.0778 43.0088,-44.2406 6.8258,-61.021 30.6263,-47.0063 30.6263,18.0345 0,57.7094 0,57.7094 -56.1029,57.7094 -30.8566,0 -56.1028,-6.0611 -56.1028,-13.469 z m -196.3603,-246.223 c 0,-57.7095 0,-57.7095 56.1029,-57.7095 63.2304,0 76.855,24.4816 17.5323,31.5027 -30.2953,3.5858 -39.523,13.0786 -43.009,44.2406 -6.8258,61.0218 -30.6262,47.007 -30.6262,-18.0338 z m 277.9397,18.0338 c -3.4858,-31.162 -12.7137,-40.6548 -43.0088,-44.2406 -59.3227,-7.0211 -45.6981,-31.5027 17.5322,-31.5027 56.1029,0 56.1029,0 56.1029,57.7095 0,65.0408 -23.8005,79.0556 -30.6263,18.0338 z"
       id="path3600"
       inkscape:connector-curvature="0" />
    <path
       style="fill:#000000"
       d="m 57.362811,-3216.187 c -2.71134,-2.6852 -4.9297,-17.3059 -4.9297,-32.4904 0,-25.7949 -1.57847,-27.7589 -24.03232,-29.903 l -24.0323096,-2.2948 0,-142.8021 0,-142.8021 42.5187096,-2.1962 42.51871,-2.1963 0,84.5821 c 0,116.3919 -2.96467,113.8748 134.123739,113.8748 l 104.54551,0 32.08859,29.2928 c 17.64873,16.111 35.72193,29.2927 40.16267,29.2927 4.44074,0 7.01075,7.4147 5.71114,16.4772 -2.33198,16.2612 -4.01636,16.5033 -128.54504,18.475 l -126.1821,1.9979 -32.49186,32.7872 c -30.374829,30.651 -49.784099,39.4642 -61.455739,27.9052 z m 309.795109,-148.4422 -28.97622,-29.3879 -111.44742,-2.0145 -111.44743,-2.0145 0,-128.1558 0,-128.1557 173.77211,0 173.77211,0 0,128.1557 c 0,126.3444 -0.22923,128.1881 -16.21876,130.4415 -12.83222,1.8085 -16.69226,7.925 -18.4864,29.2928 -3.24398,38.6352 -24.06758,39.2631 -60.96799,1.8384 z"
       id="path3494"
       inkscape:connector-curvature="0" />
    <path
       style="fill:#000000"
       d="m -579.63841,-3281.8598 c 4.6483,-64.5222 13.4584,-76.1257 88.7442,-116.8811 37.2775,-20.1799 38.491,-25.3504 23.7963,-101.3911 -8.5163,-44.0697 -10.851,-105.6242 -5.1882,-136.7878 9.2184,-50.7303 16.0961,-55.9955 65.7081,-50.3029 48.4097,5.5547 56.4361,14.1751 63.5162,68.2166 7.4487,56.8551 8.8505,58.106 17.3302,15.4647 7.3744,-37.083 19.9355,-46.3939 62.5891,-46.3939 44.4705,0 54.9242,8.5904 62.7303,51.5488 5.1519,28.3518 3.9751,77.0653 -2.6152,108.2523 -17.8659,84.5473 -17.7382,84.957 38.6027,123.7888 37.7491,26.0179 53.5609,51.7491 56.9737,92.7159 l 4.7237,56.7036 -240.7945,0 -240.7946,0 4.678,-64.9339 z m 260.8558,-181.608 c -19.7885,-65.0038 -20.767,-65.6129 -29.8533,-18.5846 -6.3534,32.8832 -1.366,56.8958 15.4079,74.1831 34.6374,35.6975 38.1371,22.2273 14.4454,-55.5985 z"
       id="path3492"
       inkscape:connector-curvature="0" />
    <path
       style="fill:#000000"
       d=""
       id="path3490"
       inkscape:connector-curvature="0" />
    <path
       style="fill:#000000"
       d="m 792.29997,-3318.8057 c -34.41755,-7.4777 -62.03922,-19.0619 -97.89344,-41.0545 -37.75869,-23.1607 -98.78739,-77.9366 -98.78739,-88.6657 0,-10.8554 73.48141,-76.9932 107.07202,-96.3716 49.26281,-28.4194 88.89366,-38.4158 142.11996,-35.8478 70.37841,3.3956 128.04849,31.6134 194.50618,95.1704 l 33.3394,31.8844 -9.0578,15.3035 c -10.2154,17.2595 -55.1709,55.9588 -91.61522,78.8662 -55.99994,35.1989 -128.97013,51.7334 -179.68371,40.7151 z m 80.08332,-56.7751 c 50.90221,-26.8662 64.48849,-91.8206 27.80605,-132.9373 -54.32591,-60.893 -154.02438,-24.7895 -154.02438,55.7763 0,34.3424 20.19032,65.7236 50.99132,79.2538 20.98661,9.2194 55.62045,8.2558 75.22701,-2.0928 z m -68.31608,-48.1175 c -9.68835,-9.5347 -14.19541,-18.756 -14.19541,-29.0435 0,-20.5603 22.81541,-43.0141 43.70685,-43.0141 20.89144,0 43.70685,22.4538 43.70685,43.0141 0,20.5603 -22.81541,43.0141 -43.70685,43.0141 -10.45322,0 -19.82314,-4.4358 -29.51144,-13.9706 z"
       id="path3531"
       inkscape:connector-curvature="0" />
    <g
       id="g3544"
       transform="matrix(5.2944503,0,0,5.2897841,4588.7091,6034.7563)"
       style="fill:#000000">
      <path
         style="fill:#000000"
         d="m -613.55615,-1752.5306 c -1.24387,-1.5861 -1.2085,-1.6214 0.37756,-0.3776 1.48327,1.1633 2.01673,1.1633 3.5,0 1.58606,-1.2438 1.62143,-1.2085 0.37756,0.3776 -0.75485,0.9625 -1.71225,1.75 -2.12756,1.75 -0.41531,0 -1.37271,-0.7875 -2.12756,-1.75 z m -20.94813,-56 -2.42431,-2.75 2.75,2.4243 c 1.5125,1.3334 2.75,2.5709 2.75,2.75 0,0.7843 -0.8098,0.146 -3.07569,-2.4243 z m 45.07569,0.25 c 1.29175,-1.375 2.57363,-2.5 2.84863,-2.5 0.275,0 -0.55688,1.125 -1.84863,2.5 -1.29174,1.375 -2.57363,2.5 -2.84863,2.5 -0.275,0 0.55689,-1.125 1.84863,-2.5 z m -53.92105,-18.0833 c 0.048,-1.165 0.28494,-1.4019 0.60416,-0.6042 0.28888,0.7219 0.25335,1.5844 -0.0789,1.9167 -0.33229,0.3323 -0.56864,-0.2584 -0.52522,-1.3125 z m 63,0 c 0.048,-1.165 0.28494,-1.4019 0.60416,-0.6042 0.28888,0.7219 0.25335,1.5844 -0.0789,1.9167 -0.33229,0.3323 -0.56864,-0.2584 -0.52522,-1.3125 z m -63,-9 c 0.048,-1.165 0.28494,-1.4019 0.60416,-0.6042 0.28888,0.7219 0.25335,1.5844 -0.0789,1.9167 -0.33229,0.3323 -0.56864,-0.2584 -0.52522,-1.3125 z m 63,0 c 0.048,-1.165 0.28494,-1.4019 0.60416,-0.6042 0.28888,0.7219 0.25335,1.5844 -0.0789,1.9167 -0.33229,0.3323 -0.56864,-0.2584 -0.52522,-1.3125 z m -54.07895,-17.9167 c 1.29175,-1.375 2.57363,-2.5 2.84863,-2.5 0.275,0 -0.55688,1.125 -1.84863,2.5 -1.29174,1.375 -2.57363,2.5 -2.84863,2.5 -0.275,0 0.55689,-1.125 1.84863,-2.5 z m 44.92431,-0.25 -2.42431,-2.75 2.75,2.4243 c 1.5125,1.3334 2.75,2.5709 2.75,2.75 0,0.7843 -0.8098,0.146 -3.07569,-2.4243 z m -58.92431,-8.5629 c 0,-0.1721 1.4625,-1.6346 3.25,-3.25 l 3.25,-2.9371 -2.93709,3.25 c -2.73778,3.0295 -3.56291,3.7097 -3.56291,2.9371 z m 70.43709,-2.9371 -2.93709,-3.25 3.25,2.9371 c 3.02946,2.7378 3.70965,3.5629 2.93709,3.5629 -0.1721,0 -1.6346,-1.4625 -3.25,-3.25 z"
         id="path3550"
         inkscape:connector-curvature="0" />
      <path
         style="fill:#000000"
         d="m -659.34964,-1836.3639 c 0.048,-1.165 0.28494,-1.4019 0.60416,-0.6042 0.28887,0.7219 0.25335,1.5844 -0.0789,1.9167 -0.33229,0.3323 -0.56864,-0.2584 -0.52522,-1.3125 z m 95,0 c 0.048,-1.165 0.28494,-1.4019 0.60416,-0.6042 0.28888,0.7219 0.25335,1.5844 -0.0789,1.9167 -0.33229,0.3323 -0.56864,-0.2584 -0.52522,-1.3125 z m -53.26645,-42.0998 c 0.72187,-0.2889 1.58438,-0.2534 1.91667,0.079 0.33229,0.3323 -0.25834,0.5687 -1.3125,0.5253 -1.16495,-0.048 -1.4019,-0.285 -0.60417,-0.6042 z m 11,0 c 0.72187,-0.2889 1.58438,-0.2534 1.91667,0.079 0.33229,0.3323 -0.25834,0.5687 -1.3125,0.5253 -1.16495,-0.048 -1.4019,-0.285 -0.60417,-0.6042 z"
         id="path3548"
         inkscape:connector-curvature="0" />
      <path
         style="fill:#000000"
         d="m -622.79477,-1764.8478 c -18.83652,-23.5104 -31.65843,-44.8142 -35.16848,-58.4328 -2.59681,-10.0753 0.003,-23.322 6.59416,-33.5927 14.56187,-22.6927 46.69327,-28.364 68.24709,-12.0459 10.91436,8.2632 16.77961,18.2706 18.89142,32.2329 0.79572,5.261 0.67412,7.8896 -0.60137,13 -2.13119,8.539 -8.90745,22.0268 -17.62844,35.0885 -7.89149,11.8194 -27.56005,36.8172 -28.9682,36.8172 -0.49325,0 -5.60803,-5.8802 -11.36618,-13.0672 z m 26.18212,-37.4291 c 5.99308,-3.2619 11.02887,-8.4099 14.38799,-14.7086 1.92444,-3.6086 2.29099,-5.8135 2.29331,-13.7951 0.003,-8.6437 -0.26206,-9.978 -2.93532,-14.8036 -3.33805,-6.0255 -8.49745,-11.0569 -14.76686,-14.4003 -3.61008,-1.9253 -5.81013,-2.2906 -13.79506,-2.2906 -7.98493,0 -10.18498,0.3653 -13.79506,2.2906 -6.26941,3.3434 -11.42881,8.3748 -14.76686,14.4003 -2.67326,4.8256 -2.93783,6.1599 -2.93532,14.8036 0.002,7.9369 0.37354,10.1947 2.25614,13.7222 6.76893,12.6831 16.79819,18.5482 30.75349,17.9848 6.55571,-0.2647 8.97433,-0.8471 13.30355,-3.2033 z m -20.31594,-13.974 c -14.00399,-5.0687 -13.06929,-25.6066 1.34198,-29.4872 14.39326,-3.8757 25.30925,12.3539 16.62211,24.7132 -3.42734,4.8761 -11.64686,7.0605 -17.96409,4.774 z"
         id="path3546"
         inkscape:connector-curvature="0" />
    </g>
    <g
       id="g3563"
       transform="matrix(4.7927435,0,0,4.3767919,4998.8158,7329.7077)"
       style="fill:#000000">
      <path
         style="fill:#000000"
         d="m -688.71429,-2420.8078 c 0,-0.1721 1.4625,-1.6346 3.25,-3.25 l 3.25,-2.9371 -2.93709,3.25 c -2.73778,3.0295 -3.56291,3.7097 -3.56291,2.9371 z m 39.75,-9.3928 c 1.2375,-0.2384 3.2625,-0.2384 4.5,0 1.2375,0.2383 0.225,0.4333 -2.25,0.4333 -2.475,0 -3.4875,-0.195 -2.25,-0.4333 z m -42.29705,-15.5443 -3.95295,-4.25 4.25,3.9529 c 2.3375,2.1742 4.25,4.0867 4.25,4.25 0,0.7566 -0.87085,-4e-4 -4.54705,-3.9529 z m 78.54705,3.8724 c 0,-0.2076 0.7875,-0.9951 1.75,-1.75 1.58606,-1.2438 1.62143,-1.2085 0.37756,0.3776 -1.30637,1.6657 -2.12756,2.1955 -2.12756,1.3724 z m -45.12756,-19.3724 c -1.24387,-1.5861 -1.2085,-1.6214 0.37756,-0.3776 0.9625,0.7549 1.75,1.5424 1.75,1.75 0,0.8231 -0.82119,0.2933 -2.12756,-1.3724 z m 12.12756,1.3724 c 0,-0.2076 0.7875,-0.9951 1.75,-1.75 1.58606,-1.2438 1.62143,-1.2085 0.37756,0.3776 -1.30637,1.6657 -2.12756,2.1955 -2.12756,1.3724 z m 27.19495,-8.1224 c 0.0204,-1.65 0.2445,-2.2039 0.49804,-1.231 0.25354,0.973 0.23687,2.323 -0.0371,3 -0.27393,0.6771 -0.48137,-0.119 -0.46099,-1.769 z m -26.32251,-6.25 c -1.24387,-1.5861 -1.2085,-1.6214 0.37756,-0.3776 0.9625,0.7549 1.75,1.5424 1.75,1.75 0,0.8231 -0.82119,0.2933 -2.12756,-1.3724 z m -15.05994,-31.9331 c 0.72187,-0.2889 1.58438,-0.2534 1.91667,0.079 0.33229,0.3323 -0.25834,0.5687 -1.3125,0.5253 -1.16495,-0.048 -1.4019,-0.285 -0.60417,-0.6042 z m 10.9375,-0.9792 c 0.6875,-0.2774 1.8125,-0.2774 2.5,0 0.6875,0.2774 0.125,0.5044 -1.25,0.5044 -1.375,0 -1.9375,-0.227 -1.25,-0.5044 z"
         id="path3569"
         inkscape:connector-curvature="0" />
      <path
         style="fill:#000000"
         d="m -664.71429,-2425.8078 c 0,-0.1721 1.4625,-1.6346 3.25,-3.25 l 3.25,-2.9371 -2.93709,3.25 c -2.73778,3.0295 -3.56291,3.7097 -3.56291,2.9371 z m -10.73097,-32.3801 c 0.97297,-0.2535 2.32297,-0.2369 3,0.037 0.67703,0.2739 -0.11903,0.4813 -1.76903,0.461 -1.65,-0.02 -2.20394,-0.2445 -1.23097,-0.4981 z m 23.48097,0.031 c 0.6875,-0.2774 1.8125,-0.2774 2.5,0 0.6875,0.2774 0.125,0.5044 -1.25,0.5044 -1.375,0 -1.9375,-0.227 -1.25,-0.5044 z m 23,0 c 0.6875,-0.2774 1.8125,-0.2774 2.5,0 0.6875,0.2774 0.125,0.5044 -1.25,0.5044 -1.375,0 -1.9375,-0.227 -1.25,-0.5044 z m -52.87756,-3.0877 c -1.24387,-1.5861 -1.2085,-1.6214 0.37756,-0.3776 0.9625,0.7549 1.75,1.5424 1.75,1.75 0,0.8231 -0.82119,0.2933 -2.12756,-1.3724 z m 13.12756,1.3724 c 0,-0.2076 0.7875,-0.9951 1.75,-1.75 1.58606,-1.2438 1.62143,-1.2085 0.37756,0.3776 -1.30637,1.6657 -2.12756,2.1955 -2.12756,1.3724 z m 33.87244,-1.3724 c -1.24387,-1.5861 -1.2085,-1.6214 0.37756,-0.3776 1.66575,1.3064 2.19548,2.1276 1.37244,2.1276 -0.20765,0 -0.99515,-0.7875 -1.75,-1.75 z m 33.20651,-3.8333 c 0.048,-1.165 0.28494,-1.4019 0.60416,-0.6042 0.28888,0.7219 0.25335,1.5844 -0.079,1.9167 -0.33229,0.3323 -0.56864,-0.2584 -0.52522,-1.3125 z m -39.92105,-2.4167 c 0,-1.375 0.22697,-1.9375 0.50438,-1.25 0.27741,0.6875 0.27741,1.8125 0,2.5 -0.27741,0.6875 -0.50438,0.125 -0.50438,-1.25 z m 39.92105,-4.5833 c 0.048,-1.165 0.28494,-1.4019 0.60416,-0.6042 0.28888,0.7219 0.25335,1.5844 -0.079,1.9167 -0.33229,0.3323 -0.56864,-0.2584 -0.52522,-1.3125 z m -81.07895,-0.7943 c 0,-0.2076 0.7875,-0.9951 1.75,-1.75 1.58606,-1.2438 1.62143,-1.2085 0.37756,0.3776 -1.30637,1.6657 -2.12756,2.1955 -2.12756,1.3724 z m 14.87244,-1.3724 c -1.24387,-1.5861 -1.2085,-1.6214 0.37756,-0.3776 1.66575,1.3064 2.19548,2.1276 1.37244,2.1276 -0.20765,0 -0.99515,-0.7875 -1.75,-1.75 z m -25.87244,-13.6276 c 0,-0.2076 0.7875,-0.9951 1.75,-1.75 1.58606,-1.2438 1.62143,-1.2085 0.37756,0.3776 -1.30637,1.6657 -2.12756,2.1955 -2.12756,1.3724 z m 81.43709,-5.8724 -2.93709,-3.25 3.25,2.9371 c 1.7875,1.6154 3.25,3.0779 3.25,3.25 0,0.7726 -0.82513,0.092 -3.56291,-2.9371 z m -77.43709,1.8724 c 0,-0.2076 0.7875,-0.9951 1.75,-1.75 1.58606,-1.2438 1.62143,-1.2085 0.37756,0.3776 -1.30637,1.6657 -2.12756,2.1955 -2.12756,1.3724 z"
         id="path3567"
         inkscape:connector-curvature="0" />
      <path
         style="fill:#000000"
         d="m -691.21429,-2418.5629 c 4.08578,-2.4348 9.50344,-8.4124 10.57948,-11.6728 1.52866,-4.6319 0.50908,-7.7305 -3.3278,-10.1136 -5.07173,-3.1501 -10.35685,-9.1295 -13.3869,-15.1456 -5.56003,-11.0393 -3.04478,-24.7554 6.29755,-34.3417 7.89791,-8.1042 17.04376,-12.7259 30.17564,-15.2486 25.0409,-4.8106 48.52181,4.6308 56.66944,22.7862 2.24637,5.0055 2.74812,7.542 2.71445,13.7223 -0.0911,16.72 -9.16583,28.6668 -26.51079,34.9012 -6.19402,2.2264 -8.91578,2.6012 -19.29771,2.6575 l -12.08664,0.066 -4.76627,4.1955 c -2.62144,2.3075 -7.17207,5.0955 -10.11251,6.1957 -6.21683,2.326 -20.28039,3.9843 -16.94794,1.9984 z m 21.52002,-40.4424 c 3.57063,-1.8464 4.97998,-4.3089 4.97998,-8.7014 0,-4.162 -2.01787,-7.1387 -5.94076,-8.7637 -6.11197,-2.5316 -13.05924,1.988 -13.05924,8.4958 0,4.5703 1.32721,7.0498 4.77514,8.9209 3.50748,1.9034 5.63615,1.9146 9.24488,0.048 z m 25.95725,-2.0138 c 5.45008,-5.4468 1.87919,-14.8134 -6.14374,-16.1154 -2.9901,-0.4852 -4.09676,-0.097 -6.92352,2.4287 -2.76354,2.4692 -3.36456,3.7248 -3.36456,7.0287 0,9.0245 10.00679,13.0791 16.43182,6.658 z m 19.90389,2.4158 c 5.99233,-2.089 8.04617,-10.5199 3.70407,-15.2051 -3.07533,-3.3184 -6.80688,-4.2515 -10.64447,-2.662 -3.92289,1.625 -5.94076,4.6017 -5.94076,8.7637 0,4.3082 1.38134,6.8112 4.77514,8.653 3.33565,1.8102 4.08573,1.8519 8.10602,0.4504 z"
         id="path3565"
         inkscape:connector-curvature="0" />
    </g>
    <path
       style="fill:#000000"
       d="m 2780.4938,-3288.4507 c -8.0638,-8.4928 -8.571,-13.9107 -7.475,-79.8537 l 1.1758,-70.7422 22.425,-1.36 22.425,-1.3595 0,73.7681 c 0,65.7517 -0.8488,74.577 -7.8114,81.2133 -10.4102,9.9225 -20.2426,9.3898 -30.7394,-1.666 z m 169.8972,4.2523 c -6.2846,-3.8555 -7.475,-11.3563 -7.475,-47.1007 l 0,-42.5149 21.3571,0 21.3572,0 0,42.5802 c 0,37.4935 -0.987,43.1367 -8.2621,47.2373 -10.2353,5.7693 -17.3297,5.7163 -26.9772,-0.2024 z m 166.1799,-3.3678 c -6.1498,-7.1571 -7.0692,-21.7845 -7.0692,-112.47 l 0,-104.243 23.4929,0 23.4928,0 0,103.4724 c 0,97.4741 -0.4952,103.9938 -8.5428,112.4699 -10.6408,11.207 -22.1629,11.4904 -31.3737,0.7707 z m -192.6341,-123.2392 c -5.1044,-7.6754 -6.6494,-22.3091 -6.6494,-62.9832 0,-67.1027 2.5665,-70.9798 46.9857,-70.9798 44.4193,0 46.9858,3.8771 46.9858,70.9798 0,70.5295 -1.5789,72.9818 -46.9858,72.9818 -29.969,0 -34.4208,-1.1036 -40.3363,-9.9986 z m -166.1659,-61.2116 c -5.7852,-6.7333 -7.0692,-18.4535 -7.0692,-64.5357 0,-68.9832 1.3814,-71.1988 44.3993,-71.1988 46.1234,0 45.3007,-1.3074 45.3007,71.9808 0,73.4086 0.9135,71.9807 -46.0429,71.9807 -23.1726,0 -31.0384,-1.7689 -36.5879,-8.227 z m 337.0859,-61.8256 c -5.4255,-5.7143 -6.7122,-18.4784 -6.7122,-66.5821 0,-40.2895 1.6557,-61.2566 5.1257,-64.9115 3.1024,-3.2674 18.1569,-5.3985 38.1377,-5.3985 46.2295,0 46.4366,0.3194 46.4366,72.0469 0,54.7405 -0.5193,58.2909 -9.4933,64.9113 -13.1691,9.7152 -64.2513,9.6689 -73.4945,-0.068 z m -151.9408,-141.4872 0,-108.0679 10.6786,-5.1245 c 7.9882,-3.8334 13.3689,-3.8334 21.3571,0 l 10.6786,5.1245 0,108.0679 0,108.0674 -21.3572,0 -21.3571,0 0,-108.0674 z m -168.0095,42.0849 c -1.5662,-1.6492 -2.8476,-33.5903 -2.8476,-70.9798 0,-73.8941 3.6935,-87.9776 23.073,-87.9776 21.1338,0 23.9127,10.3666 23.9127,89.2054 l 0,72.7514 -20.6452,0 c -11.355,0 -21.9267,-1.3497 -23.4929,-2.9994 z m 334.5952,-104.2744 c 0,-42.8871 5.3184,-54.683 24.6549,-54.683 15.9326,0 22.3308,16.3995 22.3308,57.236 l 0,37.2388 -23.4928,0 -23.4929,0 0,-39.7918 z"
       id="path3598"
       inkscape:connector-curvature="0" />
    <path
       style="fill:#000000"
       d="m -925.67563,-3237.682 c -97.26467,-23.5929 -170.15937,-115.9379 -170.15937,-215.5627 0,-119.7589 102.10386,-221.8627 221.8627,-221.8627 119.75893,0 221.86273,102.1038 221.86273,221.8627 0,121.5377 -103.56796,223.303 -225.40898,221.4855 -13.91257,-0.2085 -35.58368,-2.8731 -48.15708,-5.9228 z m 89.09164,-40.3 c 135.09181,-28.6181 188.16227,-191.7285 96.18006,-295.6059 -24.69678,-27.8908 -59.60994,-47.3358 -99.65355,-55.5017 -30.71378,-6.2636 -37.11586,-6.2636 -67.82964,0 -76.18367,15.5362 -131.59968,72.7258 -143.78438,148.3863 -14.8315,92.0961 47.0331,182.7421 138.21917,202.5225 36.61046,7.9418 40.27341,7.9515 76.86834,0.1997 z m -65.18993,-46.762 c -101.46408,-25.1855 -137.36058,-149.0022 -64.01361,-220.8 52.46388,-51.3555 133.57867,-51.1421 184.11447,0.4841 77.67632,79.3527 29.62804,210.817 -81.2061,222.187 -12.20245,1.2518 -29.7052,0.4083 -38.89476,-1.8711 z m 66.8042,-48.1984 c 31.84409,-16.3304 49.74251,-45.2249 49.74251,-80.3023 0,-50.1547 -38.59036,-88.7451 -88.74509,-88.7451 -95.15027,0 -122.90929,125.2047 -37.71666,170.1172 18.6378,9.8254 56.504,9.2974 76.71924,-1.0698 z m -68.04663,-51.2583 c -8.01368,-8.0141 -10.89124,-15.6874 -10.89124,-29.044 0,-13.3566 2.87756,-21.0299 10.89124,-29.0441 8.01413,-8.0136 15.68747,-10.8912 29.04405,-10.8912 13.35658,0 21.02992,2.8776 29.04405,10.8912 8.01368,8.0142 10.89124,15.6875 10.89124,29.0441 0,13.3566 -2.87756,21.0299 -10.89124,29.044 -8.01413,8.0137 -15.68747,10.8913 -29.04405,10.8913 -13.35658,0 -21.02992,-2.8776 -29.04405,-10.8913 z"
       id="path3613"
       inkscape:connector-curvature="0" />
    <path
       style="fill:#000000"
       d="m -1584.107,-3228.453 c -5.8294,-8.3225 -7.2217,-25.1007 -7.2217,-87.0257 l 0,-76.7149 95.1015,-95.0166 95.1015,-95.0166 95.1015,95.0166 95.1015,95.0166 0,76.7149 c 0,93.4648 -1.5746,97.3361 -39.593,97.3361 l -25.1496,0 -1.2621,-86.9831 -1.2622,-86.983 -42.9116,-1.3338 -42.9117,-1.3342 0,88.3173 0,88.3168 -106.4362,0 c -104.7292,0 -106.552,-0.167 -113.6579,-10.3104 z m 145.8685,-122.0778 0,-44.2459 -42.9116,1.3342 -42.9117,1.3338 -1.3339,42.9116 -1.3338,42.9117 44.2455,0 44.2455,0 0,-44.2454 z m -189.2752,-63.3817 c -13.4801,-13.4803 -3.9025,-25.8133 104.4835,-134.544 85.2781,-85.5492 112.6711,-110.4004 121.6933,-110.4004 8.5292,0 23.7616,12.0733 56.9572,45.144 43.617,43.4535 45.3142,44.6175 45.3142,31.082 0,-16.4567 7.2406,-25.1959 20.8759,-25.1959 16.6949,0 20.8759,9.1896 20.8759,45.883 l 0,34.7492 44.0715,44.8573 c 43.0221,43.7893 50.2664,56.6628 38.5045,68.4248 -13.5805,13.5805 -25.7149,4.3626 -125.4489,-95.294 l -100.9391,-100.861 -100.939,100.861 c -99.734,99.6566 -111.8685,108.8745 -125.449,95.294 z"
       id="path3626"
       inkscape:connector-curvature="0" />
    <path
       style="fill:#000000"
       d="m -2075.8112,-3218.0097 c -7.9933,-8.8326 -8.2148,-17.6621 -0.6023,-23.9799 7.5301,-6.2494 7.5301,-28.722 0,-34.9714 -3.2057,-2.6606 -5.8286,-7.9063 -5.8286,-11.6572 0,-3.7509 2.6229,-8.9966 5.8286,-11.6571 7.5301,-6.2494 7.5301,-28.7221 0,-34.9715 -3.2057,-2.6605 -5.8286,-7.9062 -5.8286,-11.6571 0,-3.7509 2.6229,-8.9966 5.8286,-11.6571 7.5301,-6.2494 7.5301,-28.7221 0,-34.9715 -3.2057,-2.6605 -5.8286,-7.9062 -5.8286,-11.6571 0,-3.7509 2.6229,-8.9966 5.8286,-11.6572 7.5301,-6.2493 7.5301,-28.722 0,-34.9714 -7.4672,-6.1973 -7.4672,-17.1169 0,-23.3143 7.5301,-6.2494 7.5301,-28.722 0,-34.9714 -7.4672,-6.1973 -7.4672,-17.117 0,-23.3143 7.7038,-6.3935 7.4396,-26.7508 -0.4605,-35.4804 -14.8803,-16.4424 8.7662,-40.089 25.209,-25.2086 8.7292,7.9 29.0869,8.1643 35.48,0.4604 6.1974,-7.4671 17.1174,-7.4671 23.3143,0 6.2494,7.5302 28.7225,7.5302 34.9715,0 6.1973,-7.4671 17.1173,-7.4671 23.3142,0 6.2494,7.5302 28.7225,7.5302 34.9715,0 6.1973,-7.4671 17.1173,-7.4671 23.3143,0 6.2494,7.5302 28.7224,7.5302 34.9714,0 2.6605,-3.2057 7.9062,-5.8285 11.6571,-5.8285 3.7513,0 8.997,2.6228 11.6572,5.8285 2.6605,3.2058 10.5291,5.8286 17.4857,5.8286 6.957,0 14.8255,-2.6228 17.4857,-5.8286 6.1973,-7.4671 17.1173,-7.4671 23.3143,0 6.3935,7.7039 26.7512,7.4396 35.4804,-0.4604 16.4424,-14.8804 40.089,8.7662 25.209,25.2086 -7.9,8.7296 -8.1643,29.0869 -0.4608,35.4804 3.2057,2.6606 5.8285,7.9063 5.8285,11.6572 0,3.7508 -2.6228,8.9966 -5.8285,11.6571 -7.5298,6.2494 -7.5298,28.722 0,34.9714 7.4671,6.1974 7.4671,17.117 0,23.3143 -3.2058,2.6606 -5.8286,10.5291 -5.8286,17.4857 0,6.9566 2.6228,14.8252 5.8286,17.4857 3.2057,2.6606 5.8285,7.9063 5.8285,11.6572 0,3.7509 -2.6228,8.9966 -5.8285,11.6571 -7.5298,6.2494 -7.5298,28.7221 0,34.9715 7.4671,6.1973 7.4671,17.1169 0,23.3142 -7.5298,6.2494 -7.5298,28.7221 0,34.9715 7.4671,6.1973 7.4671,17.1169 0,23.3143 -3.2058,2.6605 -5.8286,10.5291 -5.8286,17.4857 0,6.9566 2.6228,14.8251 5.8286,17.4857 7.8767,6.5369 7.342,16.8547 -1.2773,24.6548 -8.8322,7.9934 -17.6617,8.2152 -23.9799,0.6023 -2.6601,-3.2057 -10.5287,-5.8285 -17.4857,-5.8285 -6.9566,0 -14.8252,2.6228 -17.4857,5.8285 -2.6602,3.2057 -7.9059,5.8286 -11.6572,5.8286 -3.7508,0 -8.9966,-2.6229 -11.6571,-5.8286 -2.6602,-3.2057 -10.5287,-5.8285 -17.4857,-5.8285 -6.9566,0 -14.8252,2.6228 -17.4857,5.8285 -2.6602,3.2057 -7.9059,5.8286 -11.6572,5.8286 -3.7509,0 -8.9966,-2.6229 -11.6571,-5.8286 -2.6602,-3.2057 -10.5287,-5.8285 -17.4857,-5.8285 -6.9566,0 -14.8252,2.6228 -17.4857,5.8285 -2.6602,3.2057 -7.9059,5.8286 -11.6572,5.8286 -3.7509,0 -8.9966,-2.6229 -11.6571,-5.8286 -2.6602,-3.2057 -10.5288,-5.8285 -17.4857,-5.8285 -6.9566,0 -14.8252,2.6228 -17.4858,5.8285 -2.6601,3.2057 -7.9058,5.8286 -11.6571,5.8286 -3.7509,0 -8.9966,-2.6229 -11.6571,-5.8286 -2.6602,-3.2057 -10.5288,-5.8285 -17.4858,-5.8285 -6.9566,0 -14.8251,2.6228 -17.4857,5.8285 -2.6601,3.2057 -7.9058,5.8286 -11.6571,5.8286 -3.7509,0 -8.9966,-2.6229 -11.6572,-5.8286 -2.6601,-3.2057 -10.5287,-5.8285 -17.4857,-5.8285 -6.9566,0 -14.8251,2.6228 -17.4857,5.8285 -6.5365,7.8764 -16.8547,7.3417 -24.6548,-1.2772 z m 329.6834,-187.1799 0,-141.8286 -141.8286,0 -141.8286,0 -1.0219,137.9227 c -0.5623,75.8573 -0.171,140.139 0.8681,142.8485 1.4882,3.8784 31.8648,4.7091 142.8509,3.906 l 140.9601,-1.02 0,-141.8286 z m -225.5137,85.6287 38.6819,-38.828 8.1806,7.6856 c 4.4997,4.2268 9.2698,7.6851 10.601,7.6851 1.3309,0 21.8735,-23.6057 45.6502,-52.4571 23.7771,-28.8515 44.0061,-52.4572 44.9538,-52.4572 0.9477,0 14.8877,20.2765 30.9781,45.0592 l 29.2551,45.0591 -1.1078,37.5123 -1.1078,37.5123 -122.3833,1.0282 -122.3837,1.0281 38.6819,-38.8276 z m -6.7145,-122.6879 c -13.1628,-13.1629 -15.8475,-26.0572 -8.8917,-42.7052 11.1893,-26.7796 50.4164,-31.3033 65.9445,-7.6047 24.3549,37.1699 -25.8882,81.4745 -57.0528,50.3099 z"
       id="path3639"
       inkscape:connector-curvature="0" />
    <path
       style="fill:#000000"
       d="m -2423.6386,-3248.4859 c -44.9212,-18.701 -84.5335,-35.7779 -88.0274,-37.9483 -5.869,-3.646 -6.3525,-14.4245 -6.3525,-141.5959 0,-120.2962 0.7191,-138.3693 5.7042,-143.3543 3.1374,-3.1374 7.7486,-5.7042 10.2474,-5.7042 2.4986,0 39.9721,14.7015 83.2743,32.6699 43.3022,17.9685 80.3256,32.67 82.2738,32.67 1.9483,0 38.9717,-14.7015 82.2739,-32.67 43.3022,-17.9684 80.7757,-32.6699 83.2742,-32.6699 2.4989,0 7.1101,2.5668 10.2475,5.7042 4.9844,4.9847 5.7042,23.0203 5.7042,142.9404 0,105.4136 -1.052,138.0861 -4.5375,140.9019 -6.2752,5.0693 -172.5467,73.4994 -177.9975,73.2559 -2.4252,-0.1089 -41.1634,-15.4983 -86.0846,-34.1997 z m 68.9699,-120.8922 0,-111.7291 -58.9874,-24.2985 c -32.4431,-13.3641 -61.87,-25.3428 -65.393,-26.6194 -6.0453,-2.1904 -6.3517,3.9734 -5.4449,109.6454 l 0.9605,111.9661 61.7099,26.0191 c 33.9404,14.3105 62.935,26.1824 64.4324,26.3821 1.4973,0.1996 2.7225,-49.9146 2.7225,-111.3657 z m -70.7849,54.9033 c -15.972,-7.2117 -31.8986,-15.5977 -35.3925,-18.6357 -8.8445,-7.6905 -7.9235,-17.7216 2.2379,-24.3798 8.1007,-5.3077 10.6355,-4.7023 44.4674,10.6225 39.1132,17.7165 48.0107,25.9007 41.4626,38.136 -5.8225,10.8798 -19.1795,9.4264 -52.7754,-5.743 z m -4.5615,-64.7214 c -33.715,-15.977 -41.3827,-23.4443 -34.796,-33.886 8.2738,-13.117 13.693,-12.7453 50.0522,3.4318 38.557,17.1546 48.7813,26.6885 42.0705,39.2279 -6.0138,11.237 -19.4357,9.1828 -57.3267,-8.7737 z m 0.44,-61.7404 c -18.2389,-8.6401 -34.3195,-17.5829 -35.7344,-19.8724 -4.5774,-7.4066 1.5028,-21.7015 10.1545,-23.873 10.6152,-2.6644 76.5265,27.4173 81.8437,37.353 4.9865,9.3167 -4.1364,22.8145 -15.1407,22.4011 -4.3789,-0.1634 -22.8842,-7.3682 -41.1231,-16.0087 z m 176.5462,156.888 63.5249,-26.3958 0.9605,-111.9509 c 0.9068,-105.6572 0.6008,-111.8202 -5.445,-109.6298 -3.5229,1.2766 -32.9498,13.2553 -65.3929,26.6194 l -58.9874,24.2985 0,111.7291 c 0,61.4511 0.4084,111.7283 0.9075,111.7272 0.4991,-7e-4 29.4937,-11.8799 64.4324,-26.3977 z m -47.3304,-24.6832 c -6.5481,-12.2353 2.3493,-20.4195 41.4625,-38.136 33.8319,-15.3248 36.3668,-15.9302 44.4675,-10.6225 10.1618,6.6582 11.0816,16.6853 2.2379,24.3918 -9.9876,8.7029 -64.333,31.8895 -74.7442,31.8895 -5.792,0 -10.9426,-2.8862 -13.4237,-7.5228 z m 0,-61.6907 c -6.7111,-12.5394 3.5135,-22.0733 42.0702,-39.2279 36.3595,-16.1771 41.7783,-16.5488 50.0525,-3.4318 6.6288,10.5089 -1.1554,17.9482 -35.6454,34.0653 -38.4402,17.9634 -50.4827,19.7959 -56.4773,8.5944 z m 2.3236,-62.0275 c -4.0816,-5.8272 -4.5154,-9.6206 -1.701,-14.879 5.3175,-9.9357 71.2284,-40.0174 81.8436,-37.353 8.6412,2.1685 14.7342,16.4635 10.1673,23.853 -3.3872,5.481 -69.774,36.2002 -78.2311,36.2002 -3.63,0 -9.0656,-3.5197 -12.0785,-7.8212 z"
       id="path3652"
       inkscape:connector-curvature="0" />
    <path
       style="fill:#000000"
       d="m -2918.6316,-3247.6524 c -5.0831,-9.4974 -5.1859,-9.2358 10.2553,-25.9879 l 13.8895,-15.0684 -11.7125,-16.4741 c -23.6105,-33.2083 -28.3538,-48.9079 -28.3538,-93.8452 0,-39.7328 0.2668,-41.0981 13.054,-66.9678 16.9603,-34.3102 41.7097,-59.0578 76.0203,-76.015 25.8938,-12.7973 27.2138,-13.0539 67.1495,-13.0539 39.9358,0 41.2558,0.2562 67.1496,13.0539 34.3106,16.9572 59.06,41.7048 76.0203,76.015 12.7879,25.8697 13.054,27.235 13.054,66.9678 0,44.9373 -4.7433,60.6369 -28.3538,93.8452 l -11.7126,16.4741 13.8896,15.0684 c 15.4412,16.7521 15.3383,16.4905 10.2553,25.9879 -5.9011,11.0262 -20.6409,8.508 -35.5783,-6.078 l -13.179,-12.869 -25.5863,11.8133 c -21.2763,9.8232 -30.7536,12.063 -56.2624,13.2963 -34.1863,1.6524 -54.3708,-2.2669 -82.4296,-16.0058 l -18.7384,-9.1754 -13.2155,12.9044 c -14.9736,14.6215 -29.7085,17.151 -35.6152,6.1142 z m 191.3988,-36.6951 c 27.1162,-12.3704 51.1828,-36.2853 63.6013,-63.2015 8.3968,-18.1984 9.9,-25.9879 9.9141,-51.3656 0,-26.6729 -1.2203,-32.4258 -11.3931,-53.0902 -13.5501,-27.5238 -35.6229,-49.1073 -63.455,-62.0482 -16.6074,-7.722 -24.8894,-9.2639 -49.7638,-9.2639 -24.8743,0 -33.1563,1.5419 -49.7637,9.2639 -27.8321,12.9409 -49.905,34.5244 -63.455,62.0482 -10.1661,20.6504 -11.4093,26.4352 -11.4093,53.0902 0,25.4107 1.4801,33.0854 9.8327,50.9781 30.0132,64.2975 103.0066,92.277 165.8918,63.589 z m -61.6284,-103.9615 c -6.3279,-6.3279 -7.0213,-11.702 -7.0213,-54.415 0,-42.713 0.6934,-48.0871 7.0213,-54.4151 8.7991,-8.799 12.2648,-8.799 21.0639,0 6.1296,6.1296 7.0213,11.7021 7.0213,43.8831 l 0,36.8618 24.8052,0 c 30.2337,0 38.3864,3.7283 38.3864,17.5533 0,14.6288 -8.1499,17.5532 -48.9184,17.5532 -30.6564,0 -36.2671,-0.93 -42.3584,-7.0213 z m -159.3532,-94.8584 c -10.5134,-26.2751 -5.6244,-50.3918 14.3656,-70.8631 19.9422,-20.4229 46.8295,-25.6158 72.6254,-14.0268 l 13.6484,6.1317 -20.887,12.8921 c -24.0943,14.8719 -48.2963,39.491 -62.2817,63.3553 -5.3583,9.1435 -10.2107,16.6243 -10.7829,16.6243 -0.5726,0 -3.5819,-6.3511 -6.6878,-14.1135 z m 321.9057,-4.3174 c -10.9989,-22.3038 -30.3036,-42.7856 -55.9735,-59.3868 -20.6956,-13.384 -22.3463,-15.2917 -16.764,-19.3739 3.4057,-2.4904 11.5353,-5.5303 18.0658,-6.7555 50.7924,-9.5286 92.7752,41.1645 73.0966,88.2619 -2.7976,6.6962 -6.4322,12.1746 -8.0769,12.1746 -1.6448,0 -6.3013,-6.7141 -10.348,-14.9203 z"
       id="path3665"
       inkscape:connector-curvature="0" />
    <path
       style="fill:#000000"
       d="m -3359.9636,-3224.0368 c -4.784,-4.7843 -5.4326,-24.7687 -5.4326,-167.4246 0,-142.6558 0.6486,-162.6402 5.4326,-167.4245 4.7843,-4.784 24.7687,-5.4326 167.4245,-5.4326 142.6559,0 162.6403,0.6486 167.4246,5.4326 4.784,4.7843 5.4326,24.7687 5.4326,167.4245 0,142.6559 -0.6486,162.6403 -5.4326,167.4246 -4.7843,4.784 -24.7687,5.4326 -167.4246,5.4326 -142.6558,0 -162.6402,-0.6486 -167.4245,-5.4326 z m 307.4388,-167.4246 0,-140.0142 -140.0143,0 -140.0142,0 -0.9051,136.5502 c -0.4979,75.1026 -0.1521,138.5156 0.7709,140.9176 1.32,3.4399 31.2605,4.1759 140.9194,3.4644 l 139.2433,-0.9037 0,-140.0143 z m -165.9428,34.5715 c -19.0143,-13.0908 -36.2115,-23.891 -38.216,-24.0006 -2.0044,-0.1106 -11.0041,4.4677 -19.9985,10.172 -17.9595,11.3896 -30.2583,13.1368 -36.8196,5.2307 -8.4514,-10.1834 -1.0583,-20.3146 27.4404,-37.602 15.3462,-9.3091 30.0107,-15.934 32.8546,-14.8429 2.8248,1.0842 21.2842,12.8049 41.0204,26.0468 l 35.8841,24.0755 43.9631,-31.1581 c 35.2545,-24.9862 45.6204,-30.7423 52.329,-29.0587 10.2058,2.5617 15.124,17.5823 8.0551,24.6014 -13.0192,12.9269 -99.0098,70.6546 -105.0269,70.507 -3.8029,-0.093 -22.4714,-10.8803 -41.4857,-23.9711 z"
       id="path3678"
       inkscape:connector-curvature="0" />
    <flowRoot
       xml:space="preserve"
       id="flowRoot3680"
       style="fill:black;stroke:none;stroke-opacity:1;stroke-width:1px;stroke-linejoin:miter;stroke-linecap:butt;fill-opacity:1;font-family:sans-serif;font-style:normal;font-weight:normal;font-size:180px;line-height:125%;letter-spacing:0px;word-spacing:0px;"><flowRegion
         id="flowRegion3682"><rect
           id="rect3684"
           width="7782.8569"
           height="297.14285"
           x="-3531.4285"
           y="-1736.6929"
           style="font-size:180px;" /></flowRegion><flowPara
         id="flowPara3686"></flowPara></flowRoot>    <flowRoot
       xml:space="preserve"
       id="flowRoot3688"
       style="fill:black;stroke:none;stroke-opacity:1;stroke-width:1px;stroke-linejoin:miter;stroke-linecap:butt;fill-opacity:1;font-family:sans-serif;font-style:normal;font-weight:normal;font-size:180px;line-height:125%;letter-spacing:0px;word-spacing:0px;"><flowRegion
         id="flowRegion3690"><rect
           id="rect3692"
           width="377.14285"
           height="285.71429"
           x="-3360"
           y="-1588.1215"
           style="font-size:180px;" /></flowRegion><flowPara
         id="flowPara3694"></flowPara></flowRoot>    <text
       xml:space="preserve"
       style="font-style:normal;font-weight:normal;font-size:180px;line-height:125%;font-family:sans-serif;letter-spacing:0px;word-spacing:0px;fill:#000000;fill-opacity:1;stroke:none;stroke-width:1px;stroke-linecap:butt;stroke-linejoin:miter;stroke-opacity:1"
       x="-3268.5713"
       y="-3793.3521"
       id="text3696"
       sodipodi:linespacing="125%"><tspan
         sodipodi:role="line"
         id="tspan3698"
         x="-3268.5713"
         y="-3793.3521">a</tspan></text>
    <text
       xml:space="preserve"
       style="font-style:normal;font-weight:normal;font-size:180px;line-height:125%;font-family:sans-serif;letter-spacing:0px;word-spacing:0px;fill:#000000;fill-opacity:1;stroke:none;stroke-width:1px;stroke-linecap:butt;stroke-linejoin:miter;stroke-opacity:1"
       x="-2831.8105"
       y="-3809.3286"
       id="text3696-6"
       sodipodi:linespacing="125%"><tspan
         sodipodi:role="line"
         id="tspan3698-8"
         x="-2831.8105"
         y="-3809.3286">b</tspan></text>
    <text
       xml:space="preserve"
       style="font-style:normal;font-weight:normal;font-size:180px;line-height:125%;font-family:sans-serif;letter-spacing:0px;word-spacing:0px;fill:#000000;fill-opacity:1;stroke:none;stroke-width:1px;stroke-linecap:butt;stroke-linejoin:miter;stroke-opacity:1"
       x="-2343.554"
       y="-3816.573"
       id="text3718"
       sodipodi:linespacing="125%"><tspan
         sodipodi:role="line"
         id="tspan3720"
         x="-2343.554"
         y="-3816.573">c</tspan></text>
    <text
       xml:space="preserve"
       style="font-style:normal;font-weight:normal;font-size:180px;line-height:125%;font-family:sans-serif;letter-spacing:0px;word-spacing:0px;fill:#000000;fill-opacity:1;stroke:none;stroke-width:1px;stroke-linecap:butt;stroke-linejoin:miter;stroke-opacity:1"
       x="-1911.2086"
       y="-3816.573"
       id="text3722"
       sodipodi:linespacing="125%"><tspan
         sodipodi:role="line"
         id="tspan3724"
         x="-1911.2086"
         y="-3816.573">d</tspan></text>
    <text
       xml:space="preserve"
       style="font-style:normal;font-weight:normal;font-size:180px;line-height:125%;font-family:sans-serif;letter-spacing:0px;word-spacing:0px;fill:#000000;fill-opacity:1;stroke:none;stroke-width:1px;stroke-linecap:butt;stroke-linejoin:miter;stroke-opacity:1"
       x="-1418.2542"
       y="-3804.4512"
       id="text3726"
       sodipodi:linespacing="125%"><tspan
         sodipodi:role="line"
         id="tspan3728"
         x="-1418.2542"
         y="-3804.4512">e</tspan></text>
    <text
       xml:space="preserve"
       style="font-style:normal;font-weight:normal;font-size:180px;line-height:125%;font-family:sans-serif;letter-spacing:0px;word-spacing:0px;fill:#000000;fill-opacity:1;stroke:none;stroke-width:1px;stroke-linecap:butt;stroke-linejoin:miter;stroke-opacity:1"
       x="-913.17792"
       y="-3848.8979"
       id="text3730"
       sodipodi:linespacing="125%"><tspan
         sodipodi:role="line"
         id="tspan3732"
         x="-913.17792"
         y="-3848.8979">g</tspan></text>
    <text
       xml:space="preserve"
       style="font-style:normal;font-weight:normal;font-size:180px;line-height:125%;font-family:sans-serif;letter-spacing:0px;word-spacing:0px;fill:#000000;fill-opacity:1;stroke:none;stroke-width:1px;stroke-linecap:butt;stroke-linejoin:miter;stroke-opacity:1"
       x="-379.81735"
       y="-3877.1821"
       id="text3734"
       sodipodi:linespacing="125%"><tspan
         sodipodi:role="line"
         id="tspan3736"
         x="-379.81735"
         y="-3877.1821">h</tspan></text>
    <text
       xml:space="preserve"
       style="font-style:normal;font-weight:normal;font-size:180px;line-height:125%;font-family:sans-serif;letter-spacing:0px;word-spacing:0px;fill:#000000;fill-opacity:1;stroke:none;stroke-width:1px;stroke-linecap:butt;stroke-linejoin:miter;stroke-opacity:1"
       x="258.59906"
       y="-3848.8979"
       id="text3738"
       sodipodi:linespacing="125%"><tspan
         sodipodi:role="line"
         id="tspan3740"
         x="258.59906"
         y="-3848.8979">i</tspan></text>
    <text
       xml:space="preserve"
       style="font-style:normal;font-weight:normal;font-size:180px;line-height:125%;font-family:sans-serif;letter-spacing:0px;word-spacing:0px;fill:#000000;fill-opacity:1;stroke:none;stroke-width:1px;stroke-linecap:butt;stroke-linejoin:miter;stroke-opacity:1"
       x="763.67529"
       y="-3881.2229"
       id="text3742"
       sodipodi:linespacing="125%"><tspan
         sodipodi:role="line"
         id="tspan3744"
         x="763.67529"
         y="-3881.2229">j</tspan></text>
    <text
       xml:space="preserve"
       style="font-style:normal;font-weight:normal;font-size:180px;line-height:125%;font-family:sans-serif;letter-spacing:0px;word-spacing:0px;fill:#000000;fill-opacity:1;stroke:none;stroke-width:1px;stroke-linecap:butt;stroke-linejoin:miter;stroke-opacity:1"
       x="1284.9139"
       y="-4119.6187"
       id="text3746"
       sodipodi:linespacing="125%"><tspan
         sodipodi:role="line"
         id="tspan3748"
         x="1284.9139"
         y="-4119.6187">k</tspan></text>
    <text
       xml:space="preserve"
       style="font-style:normal;font-weight:normal;font-size:180px;line-height:125%;font-family:sans-serif;letter-spacing:0px;word-spacing:0px;fill:#000000;fill-opacity:1;stroke:none;stroke-width:1px;stroke-linecap:butt;stroke-linejoin:miter;stroke-opacity:1"
       x="1878.8837"
       y="-3970.1162"
       id="text3750"
       sodipodi:linespacing="125%"><tspan
         sodipodi:role="line"
         id="tspan3752"
         x="1878.8837"
         y="-3970.1162">m</tspan></text>
    <text
       xml:space="preserve"
       style="font-style:normal;font-weight:normal;font-size:180px;line-height:125%;font-family:sans-serif;letter-spacing:0px;word-spacing:0px;fill:#000000;fill-opacity:1;stroke:none;stroke-width:1px;stroke-linecap:butt;stroke-linejoin:miter;stroke-opacity:1"
       x="2396.0818"
       y="-3945.8726"
       id="text3754"
       sodipodi:linespacing="125%"><tspan
         sodipodi:role="line"
         id="tspan3756"
         x="2396.0818"
         y="-3945.8726">n</tspan></text>
    <text
       xml:space="preserve"
       style="font-style:normal;font-weight:normal;font-size:180px;line-height:125%;font-family:sans-serif;letter-spacing:0px;word-spacing:0px;fill:#000000;fill-opacity:1;stroke:none;stroke-width:1px;stroke-linecap:butt;stroke-linejoin:miter;stroke-opacity:1"
       x="2937.5237"
       y="-4002.4412"
       id="text3758"
       sodipodi:linespacing="125%"><tspan
         sodipodi:role="line"
         id="tspan3760"
         x="2937.5237"
         y="-4002.4412">o</tspan></text>
    <text
       xml:space="preserve"
       style="font-style:normal;font-weight:normal;font-size:180px;line-height:125%;font-family:sans-serif;letter-spacing:0px;word-spacing:0px;fill:#000000;fill-opacity:1;stroke:none;stroke-width:1px;stroke-linecap:butt;stroke-linejoin:miter;stroke-opacity:1"
       x="3604.2244"
       y="-3994.3599"
       id="text3762"
       sodipodi:linespacing="125%"><tspan
         sodipodi:role="line"
         id="tspan3764"
         x="3604.2244"
         y="-3994.3599">p</tspan></text>
  </g>
</svg>
